<svg width="200" height="34" viewBox="0 0 200 34" fill="none" xmlns="http://www.w3.org/2000/svg">
<path d="M149.444 32.4988V8.94108" stroke="#3B5A69" stroke-width="1.27731" stroke-linecap="round"/>
<path d="M154.554 32.4988V8.94108" stroke="#3B5A69" stroke-width="1.27731" stroke-linecap="round"/>
<path d="M164.325 19V11.9697H169.148V12.9507H165.48V15.209H168.403V16.1797H165.48V19H164.325ZM169.879 15.4849C169.879 13.4003 171.269 11.8471 173.384 11.8471C175.458 11.8471 176.899 13.4003 176.899 15.4849C176.899 17.5694 175.458 19.1226 173.384 19.1226C171.269 19.1226 169.879 17.5694 169.879 15.4849ZM171.074 15.4849C171.074 16.9972 171.994 18.1008 173.384 18.1008C174.784 18.1008 175.703 16.987 175.703 15.4849C175.703 13.9827 174.784 12.8689 173.384 12.8689C171.994 12.8689 171.074 13.9725 171.074 15.4849ZM178.116 15.4849C178.116 13.4003 179.496 11.8471 181.57 11.8471C183.246 11.8471 184.36 12.7974 184.636 14.2586H183.45C183.195 13.3288 182.572 12.8689 181.57 12.8689C180.201 12.8689 179.312 13.9419 179.312 15.4849C179.312 16.9972 180.211 18.1008 181.539 18.1008C182.633 18.1008 183.205 17.6205 183.45 16.7111H184.636C184.36 18.1723 183.215 19.1226 181.529 19.1226C179.465 19.1226 178.116 17.6001 178.116 15.4849ZM186.041 16.2001V11.9697H187.195V16.1899C187.195 17.4161 187.768 18.1008 188.963 18.1008C190.159 18.1008 190.731 17.4161 190.731 16.1899V11.9697H191.886V16.2001C191.886 18.3256 190.69 19.1226 188.963 19.1226C187.246 19.1226 186.041 18.3256 186.041 16.2001ZM193.266 16.9154H194.411C194.411 17.7329 195.024 18.2234 196.045 18.2234C197.118 18.2234 197.721 17.784 197.721 17.0381C197.721 16.3534 197.057 16.1491 196.219 15.9856L195.759 15.9038C194.615 15.7097 193.389 15.3929 193.389 13.9317C193.389 12.7361 194.421 11.8471 196.056 11.8471C197.64 11.8471 198.692 12.6135 198.692 13.9419H197.558C197.558 13.1346 196.914 12.7463 196.056 12.7463C195.197 12.7463 194.533 13.1142 194.533 13.8192C194.533 14.5345 195.259 14.7185 196.168 14.882L196.628 14.9637C197.742 15.1579 198.907 15.5155 198.907 16.9461C198.907 18.2438 197.875 19.1226 196.045 19.1226C194.247 19.1226 193.266 18.2949 193.266 16.9154ZM163.549 24.9405V23.9697H169.537V24.9405H167.115V31H165.96V24.9405H163.549ZM170.677 31V23.9697H175.602V24.9507H171.831V26.9433H174.856V27.8936H171.831V30.019H175.694V31H170.677ZM176.681 31L179.297 23.9697H180.656L183.272 31H182.056L181.453 29.2935H178.459L177.846 31H176.681ZM178.796 28.333H181.116L179.982 25.1142H179.941L178.796 28.333ZM184.437 31V23.9697H185.929L188.29 29.4366H188.32L190.65 23.9697H192.122V31H190.967L191.059 25.6455H191.018L188.729 31H187.84L185.551 25.7375H185.51L185.592 31H184.437Z" fill="#3B5A69"/>
<path d="M90.4014 8.38725C95.3782 8.38725 98.1046 11.2383 98.1046 16.5949V30.8504L93.5605 30.8504V17.0701C93.5605 14.2622 91.916 12.4479 89.1896 12.4479C85.7708 12.4479 83.6503 14.9534 83.6503 19.0572V30.8504H79.063V0.136372L83.6503 0.136372V12.2751C85.1649 9.51041 87.1124 8.38725 90.4014 8.38725Z" fill="#3B5A69"/>
<path d="M4.80368 17.1929H19.1011V12.7003L4.80368 12.7003L4.80368 4.44943L19.1011 4.44943V0L1.23341 0C0.552218 0 0 0.547601 0 1.2231L0 10.7738C0 12.9409 1.77152 14.6976 3.95681 14.6976V15.1685C1.77152 15.1685 0 16.9253 0 19.0923L0 30.8504H4.80368L4.80368 17.1929Z" fill="#3B5A69"/>
<path fill-rule="evenodd" clip-rule="evenodd" d="M40.6987 15.515C40.6987 10.72 37.6694 8.38725 32.433 8.38725C26.7205 8.38725 23.042 11.2383 22.5227 15.7742H26.8503C27.3264 13.3119 29.144 12.0591 32.2166 12.0591C34.943 12.0591 36.2846 12.9663 36.2846 14.8238C36.2846 16.7245 35.0295 17.2429 33.5149 17.4589L28.7977 18.1933C26.8936 18.4957 25.2491 19.1436 23.9075 20.0508C22.566 20.958 21.9168 22.5131 21.9168 24.7162C21.9168 28.6905 24.5999 31.3256 29.1007 31.3256C32.0435 31.3256 34.6401 30.1592 36.3278 27.5241V30.8504H40.6987V15.515ZM36.1547 21.5195C36.1547 25.105 33.6447 27.4809 30.1393 27.4809C27.7591 27.4809 26.4175 26.401 26.4175 24.5002C26.4175 23.2475 26.8503 22.4267 27.6726 21.9515C28.5381 21.4763 29.4902 21.174 30.5721 21.0012L33.0821 20.6124C34.2073 20.4396 35.2459 20.2236 36.1547 19.9212V21.5195Z" fill="#3B5A69"/>
<path d="M56.4497 8.60324H58.6483V13.0095H56.8392C52.5116 13.0095 50.3478 15.299 50.3478 19.878V30.8504H45.7605V8.81923L50.3045 8.81923V12.3183C51.5595 9.55361 53.68 8.60324 56.4497 8.60324Z" fill="#3B5A69"/>
<path d="M74.7049 26.9193H70.1388C68.1913 26.9193 67.2825 26.0554 67.2825 24.1114V12.7935H74.1855V8.81923H67.2825V2.29629H62.6953V23.9387C62.6953 29.0793 64.4696 30.8504 69.2733 30.8504H74.7049V26.9193Z" fill="#3B5A69"/>
<path fill-rule="evenodd" clip-rule="evenodd" d="M122.979 19.23C122.979 12.6207 119.084 8.38725 113.155 8.38725C106.88 8.38725 102.596 13.0527 102.596 20.0076C102.596 26.8761 106.707 31.3256 112.982 31.3256C117.959 31.3256 121.681 28.5609 122.763 24.3706H118.738C117.916 26.401 116.055 27.5241 113.328 27.5241C109.347 27.5241 106.88 25.1482 106.88 21.1308H122.979V19.23ZM113.069 12.1887C116.531 12.1887 118.608 14.3486 118.608 17.8045H106.924C107.226 14.3486 109.607 12.1887 113.069 12.1887Z" fill="#3B5A69"/>
<path d="M137.939 8.60324H140.609V13.0095H138.328C134.001 13.0095 131.837 15.299 131.837 19.878V30.8504H127.249V8.81923H131.793V12.3183C133.048 9.55361 135.169 8.60324 137.939 8.60324Z" fill="#3B5A69"/>
</svg>
