<svg width="87" height="103" viewBox="0 0 87 103" fill="none" xmlns="http://www.w3.org/2000/svg">
<g opacity="0.3">
<path d="M11.6288 9.43958V102.045H0.96875V77.8657C0.96875 73.647 4.59367 70.227 9.06523 70.227V69.2327C4.59367 69.2327 0.96875 65.8128 0.96875 61.594V2.62778C0.96875 1.20158 2.1942 0.0454102 3.70588 0.0454102L86.6204 0.04542V9.43959L11.6288 9.43958Z" fill="#333333"></path>
<path d="M32.1573 102.045V27.8721L86.6204 27.8721V18.4779L24.2343 18.4779C22.7227 18.4779 21.4972 19.6341 21.4972 21.0603V61.594C21.4972 65.8128 25.1221 69.2327 29.5937 69.2327V70.227C25.1221 70.227 21.4972 73.647 21.4972 77.8657V102.045H32.1573Z" fill="#333333"></path>
<path d="M52.6858 74.5013H86.6204V65.016H52.6858V46.3045H86.6204V36.9104H44.7628C43.2511 36.9104 42.0257 38.0665 42.0257 39.4927V61.5942C42.0257 65.8129 45.6506 69.2329 50.1222 69.2329V70.2272C45.6506 70.2272 42.0257 73.6471 42.0257 77.8659V102.045H52.6858V74.5013Z" fill="#333333"></path>
</g>
</svg>