<svg width="92" height="18" viewBox="0 0 92 18" fill="none" xmlns="http://www.w3.org/2000/svg">
<path d="M11.4201 -80.0532V17.9998H0V-7.60203C0 -12.0689 3.88335 -15.69 8.67371 -15.69V-16.7428C3.88335 -16.7428 0 -20.364 0 -24.8309V-87.2657C0 -88.7758 1.31282 -90 2.93227 -90L91.7582 -90V-80.0532L11.4201 -80.0532Z" fill="#333333"></path>
<path d="M33.4121 17.9998V-60.5365L91.7582 -60.5365V-70.4833L24.9243 -70.4833C23.3049 -70.4833 21.992 -69.2591 21.992 -67.749V-24.8309C21.992 -20.364 25.8754 -16.7428 30.6657 -16.7428V-15.69C25.8754 -15.69 21.992 -12.0689 21.992 -7.60203V17.9998H33.4121Z" fill="#333333"></path>
<path d="M55.4041 -11.1643H91.7582V-21.2076H55.4041V-41.0198H91.7582V-50.9665H46.9163C45.2969 -50.9665 43.9841 -49.7424 43.9841 -48.2323V-24.8307C43.9841 -20.3638 47.8674 -16.7427 52.6578 -16.7427V-15.6899C47.8674 -15.6899 43.9841 -12.0687 43.9841 -7.60186V18H55.4041V-11.1643Z" fill="#333333"></path>
</svg>