<svg width="68" height="108" viewBox="0 0 68 108" fill="none" xmlns="http://www.w3.org/2000/svg">
<path d="M11.4201 9.94677V108H0V82.398C0 77.9311 3.88335 74.31 8.67371 74.31V73.2572C3.88335 73.2572 0 69.636 0 65.1691V2.73428C0 1.22418 1.31282 0 2.93227 0L91.7582 1.04304e-05V9.94678L11.4201 9.94677Z" fill="#333333"></path>
<path d="M33.4121 108V29.4635L91.7582 29.4635V19.5167L24.9243 19.5167C23.3049 19.5167 21.992 20.7409 21.992 22.251V65.1691C21.992 69.636 25.8754 73.2572 30.6657 73.2572V74.31C25.8754 74.31 21.992 77.9311 21.992 82.398V108H33.4121Z" fill="#333333"></path>
<path d="M55.4041 78.8357H91.7582V68.7924H55.4041V48.9802H91.7582V39.0335H46.9163C45.2969 39.0335 43.9841 40.2576 43.9841 41.7677V65.1693C43.9841 69.6362 47.8674 73.2573 52.6578 73.2573V74.3101C47.8674 74.3101 43.9841 77.9313 43.9841 82.3981V108H55.4041V78.8357Z" fill="#333333"></path>
</svg>