<svg width="85" height="18" viewBox="0 0 85 18" fill="none" xmlns="http://www.w3.org/2000/svg">
<path d="M3.46598 9.94677V108H-7.9541V82.398C-7.9541 77.9311 -4.07075 74.31 0.719607 74.31V73.2572C-4.07075 73.2572 -7.9541 69.636 -7.9541 65.1691V2.73428C-7.9541 1.22418 -6.64128 0 -5.02183 0L83.8041 1.04304e-05V9.94678L3.46598 9.94677Z" fill="#333333"></path>
<path d="M25.458 108V29.4635L83.8041 29.4635V19.5167L16.9702 19.5167C15.3508 19.5167 14.0379 20.7409 14.0379 22.251V65.1691C14.0379 69.636 17.9213 73.2572 22.7116 73.2572V74.31C17.9213 74.31 14.0379 77.9311 14.0379 82.398V108H25.458Z" fill="#333333"></path>
<path d="M47.45 78.8357H83.8041V68.7924H47.45V48.9802H83.8041V39.0335H38.9622C37.3428 39.0335 36.03 40.2576 36.03 41.7677V65.1693C36.03 69.6362 39.9133 73.2573 44.7037 73.2573V74.3101C39.9133 74.3101 36.03 77.9313 36.03 82.3981V108H47.45V78.8357Z" fill="#333333"></path>
</svg>