<svg width="87" height="103" viewBox="0 0 87 103" fill="none" xmlns="http://www.w3.org/2000/svg">
<g opacity="0.3">
<path d="M11.0663 9.40638V102.012H0.40625V77.8325C0.40625 73.6138 4.03117 70.1938 8.50273 70.1938V69.1995C4.03117 69.1995 0.40625 65.7796 0.40625 61.5608V2.59458C0.40625 1.16838 1.6317 0.012207 3.14338 0.012207L86.0579 0.0122169V9.40639L11.0663 9.40638Z" fill="#333333"></path>
<path d="M31.5948 102.012V27.8389L86.0579 27.8389V18.4447L23.6718 18.4447C22.1602 18.4447 20.9347 19.6008 20.9347 21.0271V61.5608C20.9347 65.7796 24.5596 69.1995 29.0312 69.1995V70.1938C24.5596 70.1938 20.9347 73.6138 20.9347 77.8325V102.012H31.5948Z" fill="#333333"></path>
<path d="M52.1233 74.4681H86.0579V64.9828H52.1233V46.2713H86.0579V36.8772H44.2003C42.6886 36.8772 41.4632 38.0333 41.4632 39.4595V61.561C41.4632 65.7797 45.0881 69.1997 49.5597 69.1997V70.194C45.0881 70.194 41.4632 73.6139 41.4632 77.8327V102.012H52.1233V74.4681Z" fill="#333333"></path>
</g>
</svg>