<svg width="89" height="105" viewBox="0 0 89 105" fill="none" xmlns="http://www.w3.org/2000/svg">
<g opacity="0.5">
<path d="M11.0477 9.67047V105H0V80.1091C0 75.7663 3.75672 72.2458 8.39087 72.2458V71.2222C3.75672 71.2222 0 67.7017 0 63.3589V2.65832C0 1.19017 1.27001 0 2.83665 0L88.766 1.01407e-05V9.67048L11.0477 9.67047Z" fill="#333333"></path>
<path d="M32.3226 105V28.6451L88.766 28.6451V18.9746L24.1116 18.9746C22.5449 18.9746 21.2749 20.1648 21.2749 21.6329V63.3589C21.2749 67.7017 25.0316 71.2222 29.6658 71.2222V72.2458C25.0316 72.2458 21.2749 75.7663 21.2749 80.1091V105H32.3226Z" fill="#333333"></path>
<path d="M53.5975 76.6458H88.766V66.8815H53.5975V47.6197H88.766V37.9492H45.3865C43.8198 37.9492 42.5498 39.1394 42.5498 40.6075V63.359C42.5498 67.7018 46.3065 71.2224 50.9407 71.2224V72.2459C46.3065 72.2459 42.5498 75.7665 42.5498 80.1093V105H53.5975V76.6458Z" fill="#333333"></path>
</g>
</svg>