<svg width="87" height="103" viewBox="0 0 87 103" fill="none" xmlns="http://www.w3.org/2000/svg">
<g opacity="0.3">
<path d="M11.1913 9.40638V102.012H0.53125V77.8325C0.53125 73.6138 4.15617 70.1938 8.62773 70.1938V69.1995C4.15617 69.1995 0.53125 65.7796 0.53125 61.5608V2.59458C0.53125 1.16838 1.7567 0.012207 3.26838 0.012207L86.1829 0.0122169V9.40639L11.1913 9.40638Z" fill="#333333"></path>
<path d="M31.7198 102.012V27.8389L86.1829 27.8389V18.4447L23.7968 18.4447C22.2852 18.4447 21.0597 19.6008 21.0597 21.0271V61.5608C21.0597 65.7796 24.6846 69.1995 29.1562 69.1995V70.1938C24.6846 70.1938 21.0597 73.6138 21.0597 77.8325V102.012H31.7198Z" fill="#333333"></path>
<path d="M52.2483 74.4681H86.1829V64.9828H52.2483V46.2713H86.1829V36.8772H44.3253C42.8136 36.8772 41.5882 38.0333 41.5882 39.4595V61.561C41.5882 65.7797 45.2131 69.1997 49.6847 69.1997V70.194C45.2131 70.194 41.5882 73.6139 41.5882 77.8327V102.012H52.2483V74.4681Z" fill="#333333"></path>
</g>
</svg>