<?xml version="1.0" encoding="utf-8"?>

<svg version="1.1" id="Layer_1" xmlns="http://www.w3.org/2000/svg" xmlns:xlink="http://www.w3.org/1999/xlink" x="0px" y="0px" viewBox="0 0 1099.22 400" style="enable-background:new 0 0 1099.22 400;" xml:space="preserve">

<g>
&#x9;<path class="st0" d="M678.14,153.55c31.83,0,49.26,18.2,49.26,52.4v91.01h-29.06v-87.98c0-17.93-10.52-29.51-27.95-29.51&#xA;&#x9;&#x9;c-21.86,0-35.42,16-35.42,42.2v75.29h-29.34v-196.1h29.34v77.5C644.65,160.72,657.1,153.55,678.14,153.55z"></path>
&#x9;<path class="st0" d="M130.72,209.77h91.44v-28.68h-91.44v-52.68h91.44V100H107.89c-4.36,0-7.89,3.5-7.89,7.81v60.98&#xA;&#x9;&#x9;c0,13.84,11.33,25.05,25.3,25.05v3.01c-13.98,0-25.3,11.22-25.3,25.05v75.07h30.72V209.77z"></path>
&#x9;<path class="st1" d="M360.28,199.06c0-30.61-19.37-45.51-52.86-45.51c-36.53,0-60.06,18.2-63.38,47.16h27.68&#xA;&#x9;&#x9;c3.04-15.72,14.67-23.72,34.32-23.72c17.44,0,26.02,5.79,26.02,17.65c0,12.14-8.03,15.44-17.71,16.82l-30.17,4.69&#xA;&#x9;&#x9;c-12.18,1.93-22.69,6.07-31.27,11.86c-8.58,5.79-12.73,15.72-12.73,29.79c0,25.38,17.16,42.2,45.94,42.2&#xA;&#x9;&#x9;c18.82,0,35.42-7.45,46.22-24.27v21.24h27.95V199.06z M331.22,237.39c0,22.89-16.05,38.06-38.47,38.06&#xA;&#x9;&#x9;c-15.22,0-23.8-6.9-23.8-19.03c0-8,2.77-13.24,8.03-16.27c5.53-3.03,11.62-4.96,18.54-6.07l16.05-2.48&#xA;&#x9;&#x9;c7.2-1.1,13.84-2.48,19.65-4.41V237.39z"></path>
&#x9;<path class="st0" d="M461.01,154.93h14.06v28.13H463.5c-27.68,0-41.51,14.62-41.51,43.85v70.05h-29.34V156.31h29.06v22.34&#xA;&#x9;&#x9;C429.73,161,443.29,154.93,461.01,154.93z"></path>
&#x9;<path class="st0" d="M577.75,271.87h-29.2c-12.45,0-18.27-5.52-18.27-17.93v-72.26h44.15v-25.37h-44.15v-41.65h-29.34v138.18&#xA;&#x9;&#x9;c0,32.82,11.35,44.13,42.07,44.13h34.74V271.87z"></path>
&#x9;<path class="st1" d="M886.48,222.78c0-42.2-24.91-69.23-62.82-69.23c-40.13,0-67.53,29.79-67.53,74.19&#xA;&#x9;&#x9;c0,43.85,26.29,72.26,66.42,72.26c31.83,0,55.63-17.65,62.55-44.4h-25.74c-5.26,12.96-17.16,20.13-34.6,20.13&#xA;&#x9;&#x9;c-25.46,0-41.24-15.17-41.24-40.82h102.96V222.78z M823.1,177.82c22.14,0,35.42,13.79,35.42,35.85H783.8&#xA;&#x9;&#x9;C785.74,191.61,800.96,177.82,823.1,177.82z"></path>
&#x9;<path class="st0" d="M982.15,154.93h17.08v28.13h-14.59c-27.68,0-41.51,14.62-41.51,43.85v70.05h-29.34V156.31h29.06v22.34&#xA;&#x9;&#x9;C950.87,161,964.43,154.93,982.15,154.93z"></path>
</g>
</svg>