<svg width="69" height="108" viewBox="0 0 69 108" fill="none" xmlns="http://www.w3.org/2000/svg">
<path d="M-12.534 9.94677V108H-23.9541V82.398C-23.9541 77.9311 -20.0707 74.31 -15.2804 74.31V73.2572C-20.0707 73.2572 -23.9541 69.636 -23.9541 65.1691V2.73428C-23.9541 1.22418 -22.6413 0 -21.0218 0L67.8041 1.04304e-05V9.94678L-12.534 9.94677Z" fill="#333333"></path>
<path d="M9.45802 108V29.4635L67.8041 29.4635V19.5167L0.970201 19.5167C-0.649248 19.5167 -1.96207 20.7409 -1.96207 22.251V65.1691C-1.96207 69.636 1.92128 73.2572 6.71164 73.2572V74.31C1.92128 74.31 -1.96207 77.9311 -1.96207 82.398V108H9.45802Z" fill="#333333"></path>
<path d="M31.45 78.8357H67.8041V68.7924H31.45V48.9802H67.8041V39.0335H22.9622C21.3428 39.0335 20.03 40.2576 20.03 41.7677V65.1693C20.03 69.6362 23.9133 73.2573 28.7037 73.2573V74.3101C23.9133 74.3101 20.03 77.9313 20.03 82.3981V108H31.45V78.8357Z" fill="#333333"></path>
</svg>