<svg width="94" height="94" viewBox="0 0 94 94" fill="none" xmlns="http://www.w3.org/2000/svg">
<rect width="94" height="94" rx="12" fill="#333333"></rect>
<path d="M31.8125 27.8287V70.4999H26.8945V59.3584C26.8945 57.4145 28.5669 55.8386 30.6298 55.8386V55.3804C28.5669 55.3804 26.8945 53.8046 26.8945 51.8606V24.6899C26.8945 24.0327 27.4599 23.5 28.1573 23.5L66.4093 23.5V27.8287L31.8125 27.8287Z" fill="white"></path>
<path d="M41.2832 70.4999V36.3221L66.4093 36.3221V31.9934L37.628 31.9934C36.9306 31.9934 36.3652 32.5261 36.3652 33.1833V51.8606C36.3652 53.8046 38.0375 55.3804 40.1005 55.3804V55.8386C38.0375 55.8386 36.3652 57.4145 36.3652 59.3584V70.4999H41.2832Z" fill="white"></path>
<path d="M50.7538 57.8081H66.4093V53.4374H50.7538V44.8155H66.4093V40.4868H47.0986C46.4012 40.4868 45.8359 41.0195 45.8359 41.6767V51.8607C45.8359 53.8046 47.5082 55.3805 49.5711 55.3805V55.8387C47.5082 55.8387 45.8359 57.4145 45.8359 59.3585V70.5H50.7538V57.8081Z" fill="white"></path>
</svg>