<svg width="108" height="92" viewBox="0 0 108 92" fill="none" xmlns="http://www.w3.org/2000/svg">
<path d="M9.94678 80.5799L108 80.5799L108 92L82.398 92C77.9311 92 74.31 88.1166 74.31 83.3263L73.2572 83.3263C73.2572 88.1166 69.636 92 65.1691 92L2.73428 92C1.22418 92 3.96406e-06 90.6872 3.89327e-06 89.0677L1.0441e-05 0.241849L9.94678 0.241848L9.94678 80.5799Z" fill="#333333"></path>
<path d="M108 58.5879L29.4635 58.5879L29.4635 0.241848L19.5167 0.241848L19.5167 67.0757C19.5167 68.6952 20.7409 70.008 22.251 70.008L65.1691 70.008C69.636 70.008 73.2572 66.1246 73.2572 61.3343L74.31 61.3343C74.31 66.1246 77.9311 70.008 82.398 70.008L108 70.008L108 58.5879Z" fill="#333333"></path>
<path d="M78.8357 36.5959L78.8357 0.241845L68.7924 0.241846L68.7924 36.5959L48.9802 36.5959L48.9802 0.241847L39.0335 0.241847L39.0335 45.0837C39.0335 46.7031 40.2576 48.0159 41.7677 48.0159L65.1693 48.0159C69.6362 48.0159 73.2573 44.1326 73.2573 39.3422L74.3101 39.3422C74.3101 44.1326 77.9313 48.0159 82.3981 48.0159L108 48.0159L108 36.5959L78.8357 36.5959Z" fill="#333333"></path>
</svg>