<svg width="31" height="108" viewBox="0 0 31 108" fill="none" xmlns="http://www.w3.org/2000/svg">
<path d="M-50.534 9.94677V108H-61.9541V82.398C-61.9541 77.9311 -58.0707 74.31 -53.2804 74.31V73.2572C-58.0707 73.2572 -61.9541 69.636 -61.9541 65.1691V2.73428C-61.9541 1.22418 -60.6413 0 -59.0218 0L29.8041 1.04304e-05V9.94678L-50.534 9.94677Z" fill="#333333"></path>
<path d="M-28.542 108V29.4635L29.8041 29.4635V19.5167L-37.0298 19.5167C-38.6492 19.5167 -39.9621 20.7409 -39.9621 22.251V65.1691C-39.9621 69.636 -36.0787 73.2572 -31.2884 73.2572V74.31C-36.0787 74.31 -39.9621 77.9311 -39.9621 82.398V108H-28.542Z" fill="#333333"></path>
<path d="M-6.54995 78.8357H29.8041V68.7924H-6.54995V48.9802H29.8041V39.0335H-15.0378C-16.6572 39.0335 -17.97 40.2576 -17.97 41.7677V65.1693C-17.97 69.6362 -14.0867 73.2573 -9.29633 73.2573V74.3101C-14.0867 74.3101 -17.97 77.9313 -17.97 82.3981V108H-6.54995V78.8357Z" fill="#333333"></path>
</svg>