<svg width="338" height="134" viewBox="0 0 338 134" fill="none" xmlns="http://www.w3.org/2000/svg">
<path d="M12.088 42.6935H50.5536V31.9166H12.088V10.667H50.5536V0H3.10424C1.39185 0 0 1.31014 0 2.93301V28.0369C0 32.8294 4.10806 36.7091 9.17777 36.7091V37.8418C4.10806 37.8418 0 41.7299 0 46.514V73.9761H12.088V42.6935Z" fill="#F8F4F0"></path>
<path d="M218.824 19.864C230.634 19.864 237.112 26.6344 237.112 39.3554V73.1992H226.323V40.4796C226.323 33.8106 222.418 29.5083 215.948 29.5083C207.833 29.5083 202.805 35.4588 202.805 45.2046V73.2076H191.915V0.262695H202.805V29.0857C206.399 22.5265 211.021 19.8556 218.824 19.8556V19.864Z" fill="#F8F4F0"></path>
<path fill-rule="evenodd" clip-rule="evenodd" d="M100.846 36.7852C100.846 25.3997 93.6588 19.8633 81.225 19.8633C67.6692 19.8633 58.9301 26.6337 57.6985 37.4022H67.9729C69.1033 31.5531 73.4138 28.5778 80.7104 28.5778C87.1804 28.5778 90.369 30.7332 90.369 35.1454C90.369 39.5576 87.3913 40.8846 83.7978 41.4002L72.604 43.1414C68.0826 43.8599 64.1854 45.3982 60.9968 47.5536C57.8082 49.709 56.2729 53.4027 56.2729 58.6348C56.2729 68.0763 62.6417 74.3311 73.321 74.3311C80.3055 74.3311 86.4634 71.5587 90.4787 65.3038V73.2069H100.854V36.7936L100.846 36.7852ZM90.0569 51.0445C90.0569 59.5561 84.1015 65.2024 75.7757 65.2024C70.124 65.2024 66.9438 62.6328 66.9438 58.1277C66.9438 55.1524 67.9729 53.1999 69.9215 52.0757C71.9713 50.9515 74.232 50.2331 76.8048 49.8189L82.7602 48.8976C85.4343 48.4918 87.8974 47.9762 90.0569 47.2578V51.0529V51.0445Z" fill="#F8F4F0"></path>
<path d="M138.232 20.3786H143.453V30.8427H139.159C128.885 30.8427 123.756 36.2777 123.756 47.1476V73.1981H112.866V20.8857H123.655V29.1945C126.633 22.6269 131.66 20.3701 138.24 20.3701L138.232 20.3786Z" fill="#F8F4F0"></path>
<path d="M181.556 63.8672H170.717C166.094 63.8672 163.935 61.8132 163.935 57.1982V30.3277H180.325V20.8948H163.935V5.40137H153.044V56.7925C153.044 68.9979 157.254 73.2072 168.658 73.2072H181.556V63.8757V63.8672Z" fill="#F8F4F0"></path>
<path fill-rule="evenodd" clip-rule="evenodd" d="M296.152 45.6095C296.152 29.9133 286.906 19.8633 272.836 19.8633C257.939 19.8633 247.774 30.9445 247.774 47.4522C247.774 63.9599 257.534 74.3226 272.431 74.3226C284.249 74.3226 293.081 67.7551 295.646 57.8065H286.097C284.148 62.6244 279.728 65.2954 273.258 65.2954C263.81 65.2954 257.948 59.6576 257.948 50.1147H296.16V45.6011L296.152 45.6095ZM272.625 28.8905C280.841 28.8905 285.768 34.0212 285.768 42.2201H258.032C258.749 34.0127 264.401 28.8905 272.617 28.8905H272.625Z" fill="#F8F4F0"></path>
<path d="M331.656 20.3786H338V30.8427H332.584C322.31 30.8427 317.181 36.2777 317.181 47.1476V73.1981H306.291V20.8857H317.08V29.1945C320.058 22.6269 325.085 20.3701 331.665 20.3701L331.656 20.3786Z" fill="#F8F4F0"></path>
<path d="M317.841 90.3799H323.434V97.1956C323.434 97.9529 323.419 99.0131 323.39 100.376C323.39 101.739 323.318 103.163 323.174 104.647H323.347C323.954 103.405 324.807 102.482 325.905 101.876C327.032 101.24 328.347 100.922 329.85 100.922C330.919 100.922 331.945 101.088 332.928 101.421C333.939 101.724 334.806 102.239 335.529 102.966C336.28 103.693 336.873 104.647 337.306 105.829C337.769 107.01 338 108.464 338 110.191V123.641H332.408V110.918C332.408 108.888 332.032 107.48 331.28 106.692C330.529 105.874 329.532 105.465 328.289 105.465C326.902 105.465 325.746 106.026 324.821 107.147C323.896 108.267 323.434 109.827 323.434 111.827V123.641H317.841V90.3799Z" fill="#F8F4F0"></path>
<path d="M303.824 105.829H299.835V101.467H303.824V94.7422H309.373V101.467H314.619V105.829H309.373V116.144C309.373 117.113 309.575 117.825 309.98 118.279C310.413 118.703 311.15 118.915 312.191 118.915H314.619V123.641H311.497C308.752 123.641 306.786 123.096 305.601 122.005C304.416 120.884 303.824 119.006 303.824 116.371V105.829Z" fill="#F8F4F0"></path>
<path d="M292.269 90.3799H297.861V123.641H292.269V90.3799Z" fill="#F8F4F0"></path>
<path d="M267.79 117.778C267.79 115.779 268.339 114.234 269.437 113.144C270.565 112.053 272.356 111.326 274.813 110.963L279.062 110.327C279.611 110.236 280.059 110.16 280.405 110.099C280.752 110.009 281.027 109.903 281.229 109.781C281.431 109.66 281.562 109.494 281.619 109.282C281.706 109.069 281.749 108.797 281.749 108.464C281.749 107.525 281.446 106.722 280.839 106.055C280.232 105.359 279.278 105.01 277.978 105.01C276.677 105.01 275.68 105.344 274.986 106.01C274.293 106.646 273.903 107.525 273.816 108.645H268.614C268.787 106.161 269.712 104.253 271.388 102.92C273.065 101.587 275.261 100.921 277.978 100.921C281.128 100.921 283.469 101.618 285.001 103.011C286.562 104.404 287.342 106.434 287.342 109.1V123.64H282.01V120.323H281.836C281.345 121.504 280.521 122.413 279.365 123.049C278.209 123.685 276.721 124.003 274.9 124.003C272.617 124.003 270.854 123.443 269.611 122.322C268.397 121.201 267.79 119.687 267.79 117.778ZM281.749 112.644C281.374 113.159 280.68 113.507 279.669 113.689L276.417 114.234C274.336 114.598 273.296 115.552 273.296 117.097C273.296 117.975 273.556 118.672 274.076 119.187C274.625 119.672 275.391 119.914 276.374 119.914C277.096 119.914 277.775 119.808 278.411 119.596C279.076 119.354 279.654 119.02 280.145 118.596C280.637 118.142 281.027 117.582 281.316 116.915C281.605 116.218 281.749 115.416 281.749 114.507V112.644Z" fill="#F8F4F0"></path>
<path d="M243.969 112.644C243.969 110.857 244.229 109.236 244.749 107.782C245.298 106.328 246.05 105.101 247.003 104.102C247.986 103.072 249.142 102.284 250.472 101.739C251.83 101.194 253.318 100.921 254.937 100.921C258.145 100.921 260.674 101.875 262.523 103.784C264.373 105.662 265.298 108.388 265.298 111.962V113.598H249.648C249.735 115.688 250.269 117.263 251.252 118.324C252.263 119.384 253.55 119.914 255.11 119.914C256.497 119.914 257.552 119.596 258.275 118.96C259.026 118.324 259.518 117.582 259.749 116.733H265.081C264.908 117.733 264.575 118.687 264.084 119.596C263.593 120.505 262.928 121.307 262.09 122.004C261.281 122.671 260.284 123.201 259.099 123.595C257.943 123.988 256.584 124.185 255.024 124.185C251.526 124.185 248.81 123.201 246.873 121.232C244.937 119.263 243.969 116.4 243.969 112.644ZM254.937 105.192C253.55 105.192 252.422 105.616 251.555 106.464C250.688 107.313 250.11 108.509 249.821 110.054H259.662C259.315 106.813 257.74 105.192 254.937 105.192Z" fill="#F8F4F0"></path>
<path d="M202.812 92.3789H209.055L214.388 117.097H214.561L220.674 92.3789H226.7L232.942 117.097H233.116L238.275 92.3789H244.344L236.801 123.64H229.604L223.665 100.103H223.491L217.639 123.64H210.486L202.812 92.3789Z" fill="#F8F4F0"></path>
<path d="M182.738 105.829H178.75V101.467H182.738V94.7422H188.287V101.467H193.533V105.829H188.287V116.144C188.287 117.113 188.489 117.825 188.894 118.279C189.327 118.703 190.064 118.915 191.105 118.915H193.533V123.641H190.411C187.666 123.641 185.7 123.096 184.515 122.005C183.33 120.884 182.738 119.006 182.738 116.371V105.829Z" fill="#F8F4F0"></path>
<path d="M156.873 101.466H162.205V104.647H162.378C162.985 103.375 163.852 102.436 164.979 101.83C166.107 101.224 167.407 100.921 168.881 100.921C169.95 100.921 170.976 101.088 171.959 101.421C172.971 101.724 173.838 102.239 174.56 102.966C175.312 103.693 175.904 104.647 176.338 105.828C176.8 107.01 177.031 108.464 177.031 110.19V123.64H171.439V110.917C171.439 108.888 171.063 107.479 170.312 106.692C169.56 105.874 168.563 105.465 167.32 105.465C165.933 105.465 164.777 106.025 163.852 107.146C162.927 108.267 162.465 109.872 162.465 111.962V123.64H156.873V101.466Z" fill="#F8F4F0"></path>
<path d="M131.838 112.644C131.838 110.857 132.098 109.236 132.619 107.782C133.168 106.328 133.919 105.101 134.873 104.102C135.856 103.072 137.012 102.284 138.341 101.739C139.7 101.194 141.188 100.921 142.806 100.921C146.015 100.921 148.543 101.875 150.393 103.784C152.243 105.662 153.168 108.388 153.168 111.962V113.598H137.518C137.604 115.688 138.139 117.263 139.122 118.324C140.133 119.384 141.419 119.914 142.98 119.914C144.367 119.914 145.422 119.596 146.145 118.96C146.896 118.324 147.387 117.582 147.619 116.733H152.951C152.777 117.733 152.445 118.687 151.954 119.596C151.462 120.505 150.798 121.307 149.96 122.004C149.15 122.671 148.153 123.201 146.968 123.595C145.812 123.988 144.454 124.185 142.893 124.185C139.396 124.185 136.679 123.201 134.743 121.232C132.807 119.263 131.838 116.4 131.838 112.644ZM142.806 105.192C141.419 105.192 140.292 105.616 139.425 106.464C138.558 107.313 137.98 108.509 137.691 110.054H147.532C147.185 106.813 145.61 105.192 142.806 105.192Z" fill="#F8F4F0"></path>
<path d="M111.973 126.094C112.03 127.305 112.507 128.244 113.403 128.911C114.299 129.577 115.484 129.91 116.958 129.91C118.808 129.91 120.238 129.335 121.25 128.184C122.262 127.033 122.767 125.094 122.767 122.368V120.459H122.594C121.987 121.732 121.091 122.671 119.906 123.276C118.721 123.882 117.305 124.185 115.658 124.185C114.328 124.185 113.085 123.943 111.929 123.458C110.773 122.943 109.762 122.216 108.895 121.277C108.028 120.308 107.348 119.111 106.857 117.688C106.366 116.264 106.12 114.613 106.12 112.735C106.12 110.887 106.38 109.236 106.9 107.782C107.421 106.298 108.129 105.056 109.025 104.056C109.921 103.026 110.961 102.254 112.146 101.739C113.36 101.194 114.646 100.921 116.004 100.921C119.155 100.921 121.351 102.163 122.594 104.647H122.767V101.466H128.1V122.368C128.1 124.458 127.825 126.23 127.276 127.684C126.756 129.168 126.004 130.365 125.022 131.274C124.039 132.213 122.854 132.894 121.467 133.318C120.079 133.773 118.548 134 116.871 134C115.397 134 114.039 133.833 112.796 133.5C111.582 133.197 110.528 132.712 109.632 132.046C108.736 131.41 108.028 130.592 107.507 129.592C107.016 128.593 106.756 127.427 106.727 126.094H111.973ZM111.886 112.735C111.886 115.007 112.363 116.749 113.317 117.96C114.299 119.142 115.585 119.732 117.175 119.732C118.736 119.732 120.007 119.111 120.99 117.869C122.001 116.597 122.507 114.855 122.507 112.644C122.507 110.372 122.001 108.6 120.99 107.328C120.007 106.025 118.736 105.374 117.175 105.374C115.585 105.374 114.299 106.04 113.317 107.373C112.363 108.676 111.886 110.463 111.886 112.735Z" fill="#F8F4F0"></path>
<path d="M96.5586 90.3799H102.498V95.8325H96.5586V90.3799ZM96.732 101.467H102.324V123.641H96.732V101.467Z" fill="#F8F4F0"></path>
<path d="M85.9565 90.3799H91.549V123.641H85.9565V90.3799Z" fill="#F8F4F0"></path>
<path d="M75.1812 90.3799H80.7736V123.641H75.1812V90.3799Z" fill="#F8F4F0"></path>
<path d="M50.146 112.644C50.146 110.857 50.4061 109.236 50.9263 107.782C51.4755 106.328 52.2269 105.101 53.1806 104.102C54.1633 103.072 55.3193 102.284 56.6488 101.739C58.0072 101.194 59.4956 100.921 61.1141 100.921C64.3221 100.921 66.851 101.875 68.7007 103.784C70.5504 105.662 71.4752 108.388 71.4752 111.962V113.598H55.8251C55.9118 115.688 56.4465 117.263 57.4292 118.324C58.4407 119.384 59.7268 119.914 61.2875 119.914C62.6748 119.914 63.7297 119.596 64.4522 118.96C65.2036 118.324 65.695 117.582 65.9262 116.733H71.2585C71.0851 117.733 70.7527 118.687 70.2614 119.596C69.7701 120.505 69.1053 121.307 68.2672 122.004C67.4579 122.671 66.4608 123.201 65.2759 123.595C64.1198 123.988 62.7615 124.185 61.2008 124.185C57.7037 124.185 54.987 123.201 53.0506 121.232C51.1142 119.263 50.146 116.4 50.146 112.644ZM61.1141 105.192C59.7268 105.192 58.5997 105.616 57.7326 106.464C56.8656 107.313 56.2875 108.509 55.9985 110.054H65.8395C65.4926 106.813 63.9175 105.192 61.1141 105.192Z" fill="#F8F4F0"></path>
<path d="M37.3492 105.829H33.3608V101.467H37.3492V94.7422H42.8983V101.467H48.1439V105.829H42.8983V116.144C42.8983 117.113 43.1006 117.825 43.5052 118.279C43.9388 118.703 44.6757 118.915 45.7162 118.915H48.1439V123.641H45.0226C42.2769 123.641 40.3116 123.096 39.1267 122.005C37.9417 120.884 37.3492 119.006 37.3492 116.371V105.829Z" fill="#F8F4F0"></path>
<path d="M11.4839 101.466H16.8162V104.647H16.9896C17.5965 103.375 18.4636 102.436 19.5907 101.83C20.7179 101.224 22.0185 100.921 23.4924 100.921C24.5618 100.921 25.5878 101.088 26.5704 101.421C27.582 101.724 28.449 102.239 29.1716 102.966C29.923 103.693 30.5155 104.647 30.949 105.828C31.4114 107.01 31.6426 108.464 31.6426 110.19V123.64H26.0502V110.917C26.0502 108.888 25.6745 107.479 24.923 106.692C24.1716 105.874 23.1745 105.465 21.9317 105.465C20.5445 105.465 19.3884 106.025 18.4636 107.146C17.5387 108.267 17.0763 109.872 17.0763 111.962V123.64H11.4839V101.466Z" fill="#F8F4F0"></path>
<path d="M0 92.3789H5.80918V123.64H0V92.3789Z" fill="#F8F4F0"></path>
</svg>